<?xml version="1.0" standalone="no"?>
<!DOCTYPE svg PUBLIC "-//W3C//DTD SVG 20010904//EN"
 "http://www.w3.org/TR/2001/REC-SVG-20010904/DTD/svg10.dtd">
<svg version="1.0" xmlns="http://www.w3.org/2000/svg"
 width="260.000000pt" height="260.000000pt" viewBox="0 0 260.000000 260.000000"
 preserveAspectRatio="xMidYMid meet">
<metadata>
Created by potrace 1.11, written by Peter Selinger 2001-2013
</metadata>
<g transform="translate(0.000000,260.000000) scale(0.100000,-0.100000)"
fill="#000000" stroke="none">
<path d="M1170 2243 c-41 -4 -186 -41 -209 -53 -9 -5 -46 -23 -84 -40 -122
-57 -252 -165 -336 -279 -232 -314 -254 -732 -58 -1061 120 -199 292 -339 508
-414 219 -75 462 -69 674 16 206 82 394 255 490 448 20 41 41 82 45 91 4 9 19
54 32 100 31 114 34 366 4 474 -50 180 -127 316 -250 440 -102 102 -226 187
-316 216 -14 4 -45 15 -70 24 -56 21 -69 24 -150 35 -63 9 -209 11 -280 3z
m407 -91 c102 -34 155 -59 223 -105 176 -118 291 -271 361 -477 28 -83 33
-112 37 -231 7 -203 -24 -332 -121 -503 -51 -90 -216 -256 -307 -309 -366
-212 -826 -150 -1111 149 -169 178 -249 379 -249 626 0 367 221 691 565 829
121 48 193 59 360 55 135 -3 159 -7 242 -34z"/>
<path d="M825 1647 c-83 -33 -136 -80 -176 -157 -34 -65 -34 -186 0 -252 38
-75 140 -158 193 -158 19 0 25 -25 8 -35 -5 -3 -19 -35 -30 -71 -41 -135 -15
-283 67 -374 66 -73 135 -86 211 -40 35 22 72 86 72 126 0 25 2 26 33 18 52
-14 192 -11 210 5 19 15 16 19 36 -56 23 -86 112 -138 194 -113 147 44 215
312 125 493 -11 22 -18 40 -16 41 2 1 22 8 45 14 63 19 147 100 172 168 54
143 -2 292 -138 372 -41 24 -56 27 -136 27 -102 0 -147 -17 -210 -80 -64 -65
-80 -107 -80 -218 l0 -97 -100 0 -100 0 0 103 c0 101 0 103 -38 160 -39 60
-103 109 -167 127 -47 13 -138 11 -175 -3z m172 -178 c34 -13 80 -55 99 -91
15 -28 19 -115 6 -134 -4 -6 -36 -26 -72 -43 -36 -18 -75 -42 -87 -53 -71 -66
-211 72 -188 185 22 108 141 174 242 136z m756 -3 c38 -16 94 -76 103 -112 12
-48 -2 -121 -30 -159 -50 -65 -112 -82 -162 -42 -16 12 -56 36 -89 52 -52 26
-61 35 -69 67 -11 44 3 102 36 143 44 56 142 80 211 51z m-340 -281 c213 -37
317 -141 325 -327 4 -77 1 -93 -23 -146 -40 -90 -80 -120 -140 -104 -17 5 -37
21 -48 39 -21 36 -49 249 -36 275 27 52 -8 127 -76 162 -60 31 -165 29 -225
-4 -61 -34 -88 -84 -74 -138 6 -24 7 -70 2 -123 -16 -171 -37 -214 -108 -214
-48 0 -72 21 -108 94 -24 49 -27 67 -27 151 1 83 4 101 27 145 50 95 147 163
263 184 134 24 143 24 248 6z m-108 -359 c39 0 80 5 91 12 19 10 22 9 26 -13
6 -30 1 -38 -39 -54 -42 -17 -142 -10 -176 11 -18 13 -23 23 -20 42 5 23 8 24
27 14 11 -7 53 -12 91 -12z"/>
</g>
</svg>
